<svg width="16" height="16" viewBox="0 0 16 16" fill="none" xmlns="http://www.w3.org/2000/svg">
<g clip-path="url(#clip0_3222_3226)">
<path d="M8 1.44142C10.1358 1.44142 10.389 1.4496 11.2324 1.488C12.0124 1.52356 12.4363 1.65405 12.7179 1.76356C13.0654 1.89172 13.3797 2.09621 13.6377 2.36196C13.9035 2.62 14.1081 2.9343 14.2364 3.28178C14.346 3.56373 14.4761 3.9872 14.5116 4.76729C14.5504 5.61102 14.5582 5.86382 14.5582 8C14.5582 10.1362 14.5504 10.389 14.5116 11.2327C14.4761 12.0128 14.346 12.4363 14.2364 12.7182C14.1081 13.0657 13.9035 13.38 13.6377 13.638C13.3797 13.9038 13.0654 14.1083 12.7179 14.2364C12.4363 14.346 12.0124 14.4764 11.2324 14.512C10.389 14.5504 10.1362 14.5586 8 14.5586C5.86382 14.5586 5.61067 14.5504 4.76729 14.512C3.9872 14.4764 3.56373 14.346 3.28178 14.2364C2.93427 14.1083 2.61995 13.9038 2.36196 13.638C2.09617 13.38 1.89157 13.0657 1.7632 12.7182C1.65369 12.4363 1.52356 12.0128 1.488 11.2327C1.44924 10.389 1.44142 10.1362 1.44142 8C1.44142 5.86382 1.44924 5.61102 1.488 4.76729C1.52356 3.9872 1.65369 3.56373 1.7632 3.28178C1.89157 2.9343 2.09617 2.62 2.36196 2.36196C2.61995 2.09621 2.93427 1.89172 3.28178 1.76356C3.56373 1.65405 3.9872 1.52356 4.76729 1.488C5.61067 1.4496 5.86382 1.44142 8 1.44142V1.44142ZM8 0C5.8272 0 5.55485 0.00924791 4.70151 0.0480035C3.84818 0.086759 3.26827 0.222224 2.75947 0.419913C2.22571 0.620807 1.74218 0.935675 1.34258 1.34258C0.935588 1.74225 0.620708 2.22592 0.419911 2.75983C0.222222 3.26863 0.0867558 3.84996 0.0480002 4.70152C0.00924466 5.55307 0 5.82649 0 8C0 10.1735 0.00888911 10.4452 0.0480002 11.2985C0.0871113 12.1518 0.222222 12.7314 0.419911 13.2402C0.620708 13.7741 0.935588 14.2578 1.34258 14.6574C1.7421 15.0649 2.22562 15.3803 2.75947 15.5819C3.26827 15.7796 3.84996 15.9147 4.70151 15.9538C5.55307 15.9929 5.8272 16.0018 8 16.0018C10.1728 16.0018 10.4448 15.9925 11.2981 15.9538C12.1515 15.915 12.7314 15.7796 13.2402 15.5819C13.774 15.3803 14.2575 15.0649 14.6571 14.6574C15.0641 14.2578 15.3789 13.7741 15.5797 13.2402C15.7778 12.7314 15.9129 12.15 15.9516 11.2985C15.9904 10.4469 16 10.1728 16 8C16 5.8272 15.9908 5.55485 15.9516 4.70152C15.9125 3.84819 15.7778 3.26863 15.5797 2.75983C15.3789 2.22592 15.0641 1.74225 14.6571 1.34258C14.2575 0.935675 13.7739 0.620807 13.2402 0.419913C12.7314 0.222224 12.1497 0.0871146 11.2981 0.0480035C10.4466 0.00889236 10.1724 0 8 0V0Z" fill="#7C7C7C"/>
<path d="M8.00102 3.8916C7.46151 3.89155 6.92727 3.99778 6.42882 4.20421C5.93036 4.41064 5.47744 4.71322 5.09593 5.0947C4.71443 5.47618 4.41179 5.92906 4.20532 6.4275C3.99885 6.92594 3.89258 7.46017 3.89258 7.99968C3.89258 8.53919 3.99885 9.07343 4.20532 9.57187C4.41179 10.0703 4.71443 10.5232 5.09593 10.9047C5.47744 11.2861 5.93036 11.5887 6.42882 11.7952C6.92727 12.0016 7.46151 12.1078 8.00102 12.1078C9.09043 12.1076 10.1352 11.6747 10.9054 10.9043C11.6757 10.1339 12.1084 9.08909 12.1084 7.99968C12.1084 6.91027 11.6757 5.86548 10.9054 5.09508C10.1352 4.32469 9.09043 3.89179 8.00102 3.8916V3.8916ZM8.00102 10.6663C7.65083 10.6663 7.30407 10.5974 6.98053 10.4634C6.657 10.3293 6.36303 10.1329 6.1154 9.88531C5.61531 9.38521 5.33436 8.70693 5.33436 7.99968C5.33436 7.29244 5.61531 6.61416 6.1154 6.11407C6.6155 5.61397 7.29378 5.33302 8.00102 5.33302C8.70827 5.33302 9.38654 5.61397 9.88664 6.11407C10.3867 6.61416 10.6677 7.29244 10.6677 7.99968C10.6677 8.70693 10.3867 9.38521 9.88664 9.88531C9.38654 10.3854 8.70827 10.6663 8.00102 10.6663V10.6663Z" fill="#7C7C7C"/>
<path d="M12.2705 4.68953C12.8007 4.68953 13.2305 4.25972 13.2305 3.72953C13.2305 3.19934 12.8007 2.76953 12.2705 2.76953C11.7404 2.76953 11.3105 3.19934 11.3105 3.72953C11.3105 4.25972 11.7404 4.68953 12.2705 4.68953Z" fill="#7C7C7C"/>
</g>
<defs>
<clipPath id="clip0_3222_3226">
<rect width="16" height="16" fill="white"/>
</clipPath>
</defs>
</svg>
