<?xml version="1.0" encoding="utf-8"?>
<!-- Generator: Adobe Illustrator 25.4.1, SVG Export Plug-In . SVG Version: 6.00 Build 0)  -->
<svg version="1.1" id="レイヤー_1" xmlns="http://www.w3.org/2000/svg" xmlns:xlink="http://www.w3.org/1999/xlink" x="0px"
	 y="0px" viewBox="0 0 22 21" style="enable-background:new 0 0 22 21;" xml:space="preserve">
<path d="M21,18L21,18l-0.7,0.2l0,0L21,18l-0.7-2.1l0,0l0,0l-0.7,0.3l0,0l0.7-0.3c0-0.1,0-0.2,0-0.2l-0.6-0.4l0,0l0.6,0.4l0,0l0,0
	c0.9-1.6,1.4-3.4,1.4-5.1c0-5.4-4.6-10.3-10.8-10.3C4.9,0.2,0.2,5,0.2,10.5c0,6.4,5.5,10.3,10.8,10.3c1.8,0,3.7-0.4,5.3-1.3
	l-0.4-0.7l0,0l0.4,0.7l0,0L16,19l0.3,0.4c0.5-0.3,0.7-0.3,0.9-0.3l0,0l0,0l0.2-0.7l0,0l-0.2,0.7l2,0.6l0,0c0.5,0.1,1,0,1.4-0.3
	C21,19.1,21.1,18.6,21,18L21,18z M15.6,18.1c-1.3,0.7-3,1.1-4.6,1.1c-4.6,0-9.2-3.4-9.2-8.8c0-4.6,3.9-8.7,9.2-8.7
	c5.4,0,9.3,4.2,9.3,8.8c0,1.4-0.4,3-1.3,4.4l0,0c-0.3,0.5-0.3,1-0.1,1.5l0,0l0.6,1.9l-1.8-0.5l0,0C16.7,17.4,16,17.8,15.6,18.1z
	 M19.4,19l0.1-0.2L19.4,19l0.2-0.5l0,0L19.4,19z"/>
<path d="M15.6,8.6c-1.1,0-2,0.8-2,2c0,1.1,0.9,2,2,2l0,0c1.1,0,2-0.9,2-2C17.7,9.4,16.7,8.6,15.6,8.6z M15.6,11
	c-0.3,0-0.5-0.3-0.5-0.5c0-0.2,0.2-0.5,0.5-0.5s0.5,0.2,0.5,0.5C16.2,10.7,16,11,15.6,11z"/>
<path d="M11,8.6L11,8.6C11,8.6,11,8.6,11,8.6C11,8.6,11,8.6,11,8.6L11,8.6c-1.1,0-2,0.8-2,2c0,1.1,0.9,2,2,2h0l0,0l0,0
	c1.1,0,2-0.9,2-2C13,9.4,12.1,8.5,11,8.6z M11,11c-0.3,0-0.5-0.2-0.5-0.5c0-0.2,0.2-0.5,0.5-0.5h0c0.3,0,0.5,0.2,0.5,0.5
	C11.5,10.7,11.4,11,11,11z"/>
<path d="M6.4,8.6c-1.1,0-2,0.8-2,2c0,1.1,0.9,2,2,2c1.1,0,2-0.9,2-2C8.4,9.4,7.5,8.6,6.4,8.6z M6.4,11c-0.3,0-0.5-0.2-0.5-0.5
	c0-0.2,0.2-0.5,0.5-0.5c0.3,0,0.5,0.2,0.5,0.5C6.9,10.7,6.7,11,6.4,11z"/>
</svg>
