<svg width="32" height="32" viewBox="0 0 32 32" fill="none" xmlns="http://www.w3.org/2000/svg">
<path d="M16 0C7.16327 0 0 7.16367 0 15.9999C0 24.8362 7.16327 31.9999 16 31.9999C24.8366 31.9999 31.9999 24.8366 31.9999 15.9999C31.9999 7.16327 24.8366 0 16 0ZM20.5725 10.1857H19.1656C17.7799 10.1857 17.3474 11.0455 17.3474 11.9277V14.0205H20.4416L19.9473 17.2456H17.3474V25.0417C16.1924 25.2221 15.0163 25.2221 13.8613 25.0417V17.2456H11.0284V14.0205H13.8613V11.5627C13.8613 8.76646 15.5267 7.22192 18.0752 7.22192C19.2957 7.22192 20.5725 7.44017 20.5725 7.44017V10.1857Z" fill="#B3B3B3"/>
</svg>
