<svg width="32" height="32" viewBox="0 0 32 32" fill="none" xmlns="http://www.w3.org/2000/svg">
<path d="M16 0C7.16369 0 0 7.16369 0 16C0 24.8363 7.16369 32 16 32C24.8363 32 32 24.8367 32 16C32 7.16329 24.8367 0 16 0ZM17.6918 20.6739L15.5036 22.8652C15.0835 23.2842 14.5846 23.616 14.0357 23.8414C13.4868 24.0668 12.8988 24.1814 12.3054 24.1786C11.712 24.1758 11.1251 24.0557 10.5783 23.8251C10.0316 23.5946 9.53582 23.2582 9.1196 22.8353C7.38554 21.0689 7.441 18.2177 9.19143 16.4672L11.3396 14.319C11.525 14.1341 11.7761 14.0303 12.0379 14.0303C12.2997 14.0303 12.5508 14.1341 12.7362 14.319C12.9211 14.5043 13.025 14.7554 13.025 15.0173C13.025 15.2791 12.9211 15.5302 12.7362 15.7155L10.546 17.9056C10.0909 18.362 9.82787 18.9753 9.81095 19.6196C9.79403 20.2639 10.0245 20.8902 10.4551 21.3698C11.4246 22.4471 13.1124 22.4595 14.1371 21.4352L16.2965 19.2754C16.4819 19.0906 16.733 18.9869 16.9947 18.9869C17.2565 18.9869 17.5076 19.0906 17.693 19.2754C17.7849 19.3674 17.8577 19.4765 17.9074 19.5966C17.9571 19.7168 17.9826 19.8455 17.9825 19.9755C17.9824 20.1055 17.9567 20.2342 17.9068 20.3543C17.8569 20.4743 17.7838 20.5833 17.6918 20.6751V20.6739ZM17.8338 12.7964C18.2037 12.4265 18.807 12.3974 19.1904 12.7565C19.2847 12.8447 19.3603 12.9509 19.4128 13.0689C19.4652 13.187 19.4933 13.3143 19.4955 13.4434C19.4977 13.5725 19.4739 13.7007 19.4255 13.8204C19.3772 13.9401 19.3052 14.0489 19.214 14.1402L13.9954 19.3572C13.9041 19.4486 13.7954 19.5206 13.6757 19.569C13.5559 19.6175 13.4277 19.6413 13.2986 19.6391C13.1694 19.6369 13.042 19.6087 12.924 19.5563C12.806 19.5038 12.6998 19.4281 12.6117 19.3337C12.2546 18.9518 12.2829 18.3485 12.6516 17.9771L17.8338 12.7964ZM22.8126 15.5344L20.6647 17.6822C20.4794 17.8672 20.2283 17.9711 19.9665 17.9711C19.7047 17.9711 19.4535 17.8672 19.2682 17.6822C19.0834 17.4968 18.9795 17.2457 18.9795 16.9839C18.9795 16.7221 19.0834 16.471 19.2682 16.2857L21.4584 14.0956C21.9135 13.6393 22.1767 13.026 22.1936 12.3817C22.2106 11.7374 21.9802 11.1111 21.5497 10.6314C20.5798 9.55411 18.892 9.54135 17.8677 10.566L15.7079 12.7254C15.5227 12.9105 15.2715 13.0144 15.0097 13.0144C14.7478 13.0144 14.4967 12.9105 14.3114 12.7254C14.1264 12.5401 14.0226 12.289 14.0226 12.0271C14.0226 11.7653 14.1264 11.5142 14.3114 11.3289L16.5015 9.13875C16.9217 8.71982 17.4206 8.38812 17.9695 8.16276C18.5184 7.93739 19.1064 7.8228 19.6998 7.82558C20.2931 7.82836 20.8801 7.94846 21.4268 8.17897C21.9736 8.40947 22.4693 8.74583 22.8856 9.16868C24.6189 10.9327 24.563 13.7847 22.8126 15.5356V15.5344Z" fill="#B3B3B3"/>
</svg>
