<svg width="24" height="20" viewBox="0 0 24 20" fill="none" xmlns="http://www.w3.org/2000/svg">
<path fill-rule="evenodd" clip-rule="evenodd" d="M17.9089 19C20.9502 19.0084 23 16.5095 23 13.4384V10.0042V6.57001C23 3.49883 20.9502 1 17.9089 1H6.09114C3.04979 1 1 3.49883 1 6.57001V13.4384C1 16.5095 3.04979 19.0084 6.09114 19H17.9089Z" stroke="#575292" stroke-width="1.5" stroke-linecap="round" stroke-linejoin="round"/>
<path d="M6.5 18.4911C6.5 17 7.99998 14.5 12 14.5C16 14.5 17.5 17 17.5 18.5089" stroke="#575292" stroke-width="1.5" stroke-linecap="round" stroke-linejoin="round"/>
<path fill-rule="evenodd" clip-rule="evenodd" d="M12.0004 12C14.2095 12 16 10.2087 16 7.99959C16 5.79049 14.2095 4 12.0004 4C9.79133 4 8.00002 5.79049 8.00002 7.99959C7.99256 10.2012 9.77144 11.9925 11.9722 12H12.0004Z" stroke="#575292" stroke-width="1.42857" stroke-linecap="round" stroke-linejoin="round"/>
</svg>
