<svg width="6" height="7" viewBox="0 0 6 7" fill="none" xmlns="http://www.w3.org/2000/svg">
<path fill-rule="evenodd" clip-rule="evenodd" d="M0 2.91122C0 1.30126 1.35666 0 2.99769 0C4.64334 0 6 1.30126 6 2.91122C6 3.72249 5.70247 4.47567 5.21276 5.11405C4.67252 5.81823 4.00664 6.43176 3.25713 6.91335C3.08559 7.02465 2.93078 7.03305 2.74251 6.91335C1.98873 6.43176 1.32285 5.81823 0.787235 5.11405C0.297171 4.47567 0 3.72249 0 2.91122ZM2.00971 3.00191C2.00971 3.54125 2.45351 3.96544 2.99767 3.96544C3.54219 3.96544 3.99026 3.54125 3.99026 3.00191C3.99026 2.46678 3.54219 2.02194 2.99767 2.02194C2.45351 2.02194 2.00971 2.46678 2.00971 3.00191Z" fill="#6FCF97"/>
</svg>
