<svg width="53" height="18" viewBox="0 0 53 18" fill="none" xmlns="http://www.w3.org/2000/svg">
<path d="M0 0H44C48.9706 0 53 4.02944 53 9C53 13.9706 48.9706 18 44 18H0V0Z" fill="#27AE60" fill-opacity="0.6"/>
<path d="M18.7109 5H17.2695V10.4531H17.1992L13.4336 5H12.1367V13H13.5859V7.55078H13.6523L17.4219 13H18.7109V5ZM20.29 13H25.5244V11.7852H21.7393V9.60156H25.2236V8.38672H21.7393V6.21484H25.4932V5H20.29V13ZM28.6553 13H30.085L31.6904 7.38672H31.7529L33.3545 13H34.7842L37.042 5H35.4834L34.042 10.8828H33.9717L32.4287 5H31.0107L29.4717 10.8789H29.3975L27.9561 5H26.3975L28.6553 13ZM39.7148 5H38.2031L38.3281 10.6484H39.5859L39.7148 5ZM38.957 13.0859C39.418 13.0859 39.8125 12.7031 39.8164 12.2266C39.8125 11.7578 39.418 11.375 38.957 11.375C38.4805 11.375 38.0938 11.7578 38.0977 12.2266C38.0938 12.7031 38.4805 13.0859 38.957 13.0859Z" fill="white"/>
</svg>
