<svg width="17" height="17" viewBox="0 0 17 17" fill="none" xmlns="http://www.w3.org/2000/svg">
<path fill-rule="evenodd" clip-rule="evenodd" d="M7.02539 0C3.14537 0 0 3.14537 0 7.02539C0 10.9054 3.14537 14.0508 7.02539 14.0508C8.81647 14.0508 10.451 13.3805 11.6919 12.2772C11.6445 12.3992 11.6195 12.5305 11.6195 12.6644C11.6195 12.9433 11.728 13.2107 11.921 13.4076L13.9627 15.7772C14.4605 16.2867 15.2675 16.2867 15.7652 15.7772C16.263 15.2678 16.2203 14.4417 15.7225 13.9323L13.4274 11.9211C13.148 11.6401 12.6491 11.57 12.2603 11.7108C13.3737 10.4677 14.0508 8.82561 14.0508 7.02539C14.0508 5.16214 13.3106 3.37521 11.9931 2.05769C10.6756 0.740173 8.88864 0 7.02539 0ZM2 7.02539C2 4.24994 4.24994 2 7.02539 2C8.35821 2 9.63644 2.52946 10.5789 3.4719C11.5213 4.41435 12.0508 5.69257 12.0508 7.02539C12.0508 9.80084 9.80084 12.0508 7.02539 12.0508C4.24994 12.0508 2 9.80084 2 7.02539Z" fill="#575292"/>
</svg>
