<svg width="18" height="16" viewBox="0 0 18 16" fill="none" xmlns="http://www.w3.org/2000/svg">
<path fill-rule="evenodd" clip-rule="evenodd" d="M11.5445 1.25868C12.4111 1.60359 12.6762 2.80475 13.0305 3.19084C13.3849 3.57693 13.8919 3.7082 14.1725 3.7082C15.6636 3.7082 16.8725 4.91708 16.8725 6.40738V11.3793C16.8725 13.3784 15.251 15 13.2519 15H4.62065C2.62071 15 1 13.3784 1 11.3793V6.40738C1 4.91708 2.20889 3.7082 3.70005 3.7082C3.97975 3.7082 4.48681 3.57693 4.84201 3.19084C5.19635 2.80475 5.46061 1.60359 6.32716 1.25868C7.19458 0.913774 10.678 0.913774 11.5445 1.25868Z" stroke="#FF8C00" stroke-width="1.5" stroke-linecap="round" stroke-linejoin="round"/>
<path d="M13.651 5.93338H13.6587" stroke="#FF8C00" stroke-width="2" stroke-linecap="round" stroke-linejoin="round"/>
<path fill-rule="evenodd" clip-rule="evenodd" d="M11.6635 9.04635C11.6635 7.53975 10.4426 6.31885 8.936 6.31885C7.42939 6.31885 6.2085 7.53975 6.2085 9.04635C6.2085 10.553 7.42939 11.7738 8.936 11.7738C10.4426 11.7738 11.6635 10.553 11.6635 9.04635Z" stroke="#FF8C00" stroke-width="1.5" stroke-linecap="round" stroke-linejoin="round"/>
</svg>
