<?xml version="1.0" encoding="utf-8"?>
<!-- Generator: Adobe Illustrator 25.4.1, SVG Export Plug-In . SVG Version: 6.00 Build 0)  -->
<svg version="1.1" id="レイヤー_1" xmlns="http://www.w3.org/2000/svg" xmlns:xlink="http://www.w3.org/1999/xlink" x="0px"
	 y="0px" viewBox="0 0 28 22" style="enable-background:new 0 0 28 22;" xml:space="preserve">
<path class="st0" d="M27.71,13.29l-3-3l-10-10L14,1l0,0l0.71-0.71c-0.09-0.09-0.21-0.17-0.33-0.22C14.26,0.03,14.13,0,14,0l0,0l0,0
	c-0.13,0-0.26,0.03-0.38,0.07c-0.12,0.05-0.23,0.12-0.33,0.22l-10,10l-3,3c-0.39,0.39-0.39,1.02,0,1.41s1.02,0.39,1.41,0L3,13.41V21
	c0,0.55,0.45,1,1,1h7c0.55,0,1-0.45,1-1v-5c0-1.1,0.9-2,2-2s2,0.9,2,2v5c0,0.55,0.45,1,1,1h7c0.55,0,1-0.45,1-1v-7.59l1.29,1.29
	c0.39,0.39,1.02,0.39,1.41,0S28.1,13.68,27.71,13.29z M23,20h-5v-4c0-2.21-1.79-4-4-4s-4,1.79-4,4v4H5v-8.59l9-9l9,9V20z"/>
</svg>
