<?xml version="1.0" encoding="utf-8"?>
<!-- Generator: Adobe Illustrator 25.4.1, SVG Export Plug-In . SVG Version: 6.00 Build 0)  -->
<svg version="1.1" id="レイヤー_1" xmlns="http://www.w3.org/2000/svg" xmlns:xlink="http://www.w3.org/1999/xlink" x="0px"
	 y="0px" viewBox="0 0 16 22" style="enable-background:new 0 0 16 22;" xml:space="preserve">

<path class="st0" d="M11.5,10.8C13,9.7,14,8,14,6c0-3.3-2.7-6-6-6C4.7,0,2,2.7,2,6c0,2,1,3.7,2.5,4.8C1.8,12.1,0,14.9,0,18v2
	c0,1.1,0.9,2,2,2h12c1.1,0,2-0.9,2-2v-2C16,14.9,14.2,12.1,11.5,10.8z M4,6c0-2.2,1.8-4,4-4s4,1.8,4,4s-1.8,4-4,4S4,8.2,4,6z M14,20
	H2v-2c0-3.3,2.7-6,6-6c0,0,0,0,0,0c0,0,0,0,0,0c3.3,0,6,2.7,6,6V20z"/>
</svg>
