<svg width="17" height="17" viewBox="0 0 17 17" fill="none" xmlns="http://www.w3.org/2000/svg">
<g clip-path="url(#clip0_3224_3349)">
<path d="M8.19334 5.09587L10.444 2.85137C11.5121 1.78622 13.2707 1.80063 14.2815 2.91917C14.7305 3.41738 14.9711 4.06817 14.9538 4.7378C14.9364 5.40742 14.6625 6.045 14.1884 6.51946L11.907 8.79461C11.7138 8.9873 11.6053 9.24859 11.6053 9.52104C11.6053 9.79348 11.7138 10.0548 11.907 10.2475C12.1003 10.4401 12.3624 10.5483 12.6356 10.5483C12.9089 10.5483 13.171 10.4401 13.3643 10.2475L15.6029 8.01503C17.4271 6.19538 17.4853 3.23258 15.6774 1.39621C15.2436 0.956368 14.7269 0.606471 14.1569 0.366685C13.587 0.126899 12.9751 0.00196655 12.3565 -0.000925187C11.7379 -0.00381693 11.1248 0.115393 10.5526 0.34984C9.98045 0.584286 9.46045 0.929326 9.02258 1.36509L6.74114 3.64024C6.54797 3.833 6.43945 4.09438 6.43945 4.3669C6.43945 4.63942 6.54797 4.90078 6.74114 5.09355C6.93386 5.28505 7.19469 5.39277 7.46675 5.3932C7.73881 5.39364 8.00001 5.28676 8.19334 5.09587Z" fill="#7C7C7C"/>
<path d="M8.80696 11.9045L6.55626 14.149C5.48817 15.2142 3.72959 15.1998 2.71877 14.0813C2.26967 13.5831 2.02905 12.9323 2.04637 12.2626C2.06369 11.593 2.33764 10.9554 2.81189 10.481L5.09333 8.2058C5.18908 8.11046 5.26504 7.99722 5.31686 7.87257C5.36868 7.74793 5.39536 7.61432 5.39536 7.47938C5.39536 7.34444 5.36868 7.21083 5.31686 7.08618C5.26504 6.96154 5.18908 6.8483 5.09333 6.75296C4.90011 6.56035 4.6381 6.45215 4.3649 6.45215C4.0917 6.45215 3.82969 6.56035 3.63647 6.75296L1.39787 8.98539C-0.426353 10.805 -0.484558 13.7679 1.3229 15.6042C1.75673 16.044 2.27352 16.3939 2.84352 16.6336C3.41351 16.8734 4.02544 16.9983 4.64406 17.0012C5.26267 17.0041 5.87575 16.8849 6.44797 16.6505C7.0202 16.4161 7.54025 16.071 7.97819 15.6353L10.2596 13.3602C10.4528 13.1675 10.5613 12.9062 10.5613 12.6338C10.5613 12.3613 10.4528 12.1 10.2596 11.9073C10.067 11.7156 9.80605 11.6077 9.53387 11.6072C9.2617 11.6067 9.00038 11.7136 8.80696 11.9045Z" fill="#7C7C7C"/>
<path d="M4.96683 11.9638C4.59435 11.5668 4.62367 10.9423 5.00919 10.5556L10.4102 5.16949C10.7957 4.78503 11.4242 4.75577 11.8223 5.12723C11.9209 5.21885 11.9999 5.32934 12.0547 5.45209C12.1095 5.57484 12.1389 5.70735 12.1412 5.84169C12.1435 5.97604 12.1187 6.10946 12.0681 6.23401C12.0176 6.35856 11.9424 6.47168 11.847 6.56661L6.41019 11.9884C6.315 12.0835 6.20157 12.1585 6.07667 12.2089C5.95178 12.2593 5.81798 12.2841 5.68327 12.2818C5.54855 12.2795 5.41568 12.2502 5.29259 12.1956C5.16949 12.1409 5.0587 12.0621 4.96683 11.9638Z" fill="#7C7C7C"/>
</g>
<defs>
<clipPath id="clip0_3224_3349">
<rect width="17" height="17" fill="white"/>
</clipPath>
</defs>
</svg>
