<svg width="18" height="15" viewBox="0 0 18 15" fill="none" xmlns="http://www.w3.org/2000/svg">
<g clip-path="url(#clip0_3222_3233)">
<path d="M5.6608 14.9998C12.4536 14.9998 16.1684 9.22944 16.1684 4.22602C16.1684 4.06196 16.1652 3.89791 16.1576 3.73631C16.8804 3.20019 17.5043 2.53631 18 1.77579C17.3264 2.08205 16.6118 2.28294 15.88 2.37174C16.6511 1.89855 17.2283 1.15413 17.504 0.277101C16.779 0.718218 15.9859 1.02908 15.1588 1.19625C14.6021 0.588933 13.8657 0.186714 13.0636 0.0518792C12.2614 -0.082956 11.4383 0.0571078 10.7217 0.450383C10.005 0.843659 9.43476 1.46821 9.09923 2.22736C8.76369 2.9865 8.68158 3.83789 8.8656 4.64971C7.3972 4.57434 5.96068 4.18315 4.6493 3.50156C3.33791 2.81998 2.18097 1.86322 1.2536 0.693409C0.781345 1.52705 0.636684 2.51389 0.849072 3.45305C1.06146 4.3922 1.61492 5.21306 2.3968 5.74851C1.81038 5.7302 1.23683 5.56773 0.724404 5.27478C0.724404 5.29078 0.724404 5.30636 0.724404 5.32318C0.724522 6.19751 1.01963 7.04488 1.55966 7.72151C2.09969 8.39815 2.85137 8.86237 3.6872 9.03544C3.14336 9.18767 2.57271 9.20985 2.0192 9.10025C2.25508 9.85274 2.71444 10.5108 3.33303 10.9824C3.95162 11.454 4.69849 11.7156 5.4692 11.7305C4.16029 12.7838 2.54381 13.3547 0.88 13.3514C0.585919 13.3516 0.292083 13.334 0 13.2989C1.68855 14.4114 3.65375 15.0019 5.6608 14.9998Z" fill="#7C7C7C"/>
</g>
<defs>
<clipPath id="clip0_3222_3233">
<rect width="18" height="15" fill="white"/>
</clipPath>
</defs>
</svg>
