<svg width="22" height="21" viewBox="0 0 22 21" fill="none" xmlns="http://www.w3.org/2000/svg">
<path fill-rule="evenodd" clip-rule="evenodd" d="M21 10.5143C21 5.50976 16.79 1 10.98 1C5.3 1 1 5.42414 1 10.4857C1 16.356 6.04 20 11 20C12.64 20 14.46 19.5814 15.92 18.7631C16.43 18.4682 16.86 18.2494 17.41 18.4206L19.43 18.9915C19.94 19.1437 20.4 18.7631 20.25 18.2494L19.58 16.1182C19.47 15.8232 19.49 15.5093 19.65 15.2619C20.51 13.7586 21 12.1127 21 10.5143ZM15.63 11.742C16.33 11.742 16.91 11.1901 16.91 10.5241C16.91 9.84863 16.34 9.30632 15.63 9.30632C14.92 9.30632 14.35 9.84863 14.35 10.5241C14.35 11.1901 14.92 11.7325 15.63 11.742ZM12.3 10.5147C12.3 11.1903 11.73 11.7326 11.02 11.7421C10.31 11.7421 9.73999 11.1903 9.73999 10.5243C9.73999 9.84875 10.31 9.30644 11.02 9.30644C11.72 9.29692 12.3 9.84875 12.3 10.5147ZM7.69 10.5241C7.69 11.1901 7.12 11.742 6.41 11.742C5.7 11.742 5.13 11.1901 5.13 10.5241C5.13 9.84863 5.7 9.30632 6.41 9.30632C7.12 9.30632 7.69 9.84863 7.69 10.5241Z" fill="white"/>
<path d="M15.92 18.7631L16.2955 19.4125L16.2867 19.4174L15.92 18.7631ZM17.41 18.4206L17.206 19.1424L17.1965 19.1397L17.187 19.1367L17.41 18.4206ZM19.43 18.9915L19.634 18.2697L19.6445 18.2728L19.43 18.9915ZM20.25 18.2494L20.9655 18.0244L20.9678 18.0318L20.9699 18.0392L20.25 18.2494ZM19.58 16.1182L20.2827 15.8561L20.2896 15.8745L20.2955 15.8932L19.58 16.1182ZM19.65 15.2619L20.301 15.6343L20.2908 15.6521L20.2798 15.6692L19.65 15.2619ZM15.63 11.742V12.492L15.62 12.4919L15.63 11.742ZM11.02 11.7421L11.03 12.4921H11.02V11.7421ZM11.02 9.30644L11.0302 10.0564H11.02V9.30644ZM10.98 0.25C17.1939 0.25 21.75 5.08528 21.75 10.5143H20.25C20.25 5.93425 16.3861 1.75 10.98 1.75V0.25ZM0.25 10.4857C0.25 4.99148 4.90447 0.25 10.98 0.25V1.75C5.69552 1.75 1.75 5.8568 1.75 10.4857H0.25ZM11 20.75C5.72309 20.75 0.25 16.8613 0.25 10.4857H1.75C1.75 15.8508 6.35691 19.25 11 19.25V20.75ZM16.2867 19.4174C14.7019 20.3056 12.7529 20.75 11 20.75V19.25C12.5271 19.25 14.2181 18.8572 15.5533 18.1089L16.2867 19.4174ZM17.187 19.1367C16.9812 19.0726 16.8192 19.1095 16.2955 19.4124L15.5445 18.1139C16.0408 17.8269 16.7388 17.4261 17.633 17.7045L17.187 19.1367ZM19.226 19.7132L17.206 19.1424L17.614 17.6989L19.634 18.2698L19.226 19.7132ZM20.9699 18.0392C21.1245 18.5686 20.967 19.0964 20.582 19.434C20.2118 19.7588 19.6962 19.8537 19.2155 19.7102L19.6445 18.2728C19.6738 18.2815 19.6432 18.2622 19.593 18.3063C19.5684 18.3279 19.5464 18.3599 19.5354 18.3984C19.5242 18.4381 19.5308 18.4623 19.5301 18.4596L20.9699 18.0392ZM20.2955 15.8932L20.9655 18.0244L19.5345 18.4743L18.8645 16.3431L20.2955 15.8932ZM20.2798 15.6692C20.2672 15.6886 20.2427 15.7489 20.2827 15.8561L18.8773 16.3803C18.6973 15.8976 18.7128 15.3299 19.0202 14.8546L20.2798 15.6692ZM21.75 10.5143C21.75 12.2636 21.215 14.0367 20.301 15.6343L18.999 14.8895C19.805 13.4806 20.25 11.9617 20.25 10.5143H21.75ZM17.66 10.5241C17.66 11.6391 16.7086 12.492 15.63 12.492V10.992C15.9514 10.992 16.16 10.7412 16.16 10.5241H17.66ZM15.63 8.55632C16.7186 8.55632 17.66 9.39966 17.66 10.5241H16.16C16.16 10.2976 15.9614 10.0563 15.63 10.0563V8.55632ZM13.6 10.5241C13.6 9.39966 14.5414 8.55632 15.63 8.55632V10.0563C15.2986 10.0563 15.1 10.2976 15.1 10.5241H13.6ZM15.62 12.4919C14.5448 12.4775 13.6 11.6441 13.6 10.5241H15.1C15.1 10.7362 15.2952 10.9874 15.6401 10.992L15.62 12.4919ZM11.0099 10.9922C11.3509 10.9876 11.55 10.74 11.55 10.5147H13.05C13.05 11.6405 12.1091 12.4776 11.03 12.492L11.0099 10.9922ZM10.49 10.5243C10.49 10.745 10.6925 10.9921 11.02 10.9921V12.4921C9.92751 12.4921 8.98999 11.6355 8.98999 10.5243H10.49ZM11.02 10.0564C10.6886 10.0564 10.49 10.2977 10.49 10.5243H8.98999C8.98999 9.39978 9.9314 8.55644 11.02 8.55644V10.0564ZM11.55 10.5147C11.55 10.2962 11.3419 10.0521 11.0302 10.0564L11.0098 8.55651C12.0981 8.54171 13.05 9.40126 13.05 10.5147H11.55ZM6.41 10.992C6.73752 10.992 6.94 10.7449 6.94 10.5241H8.44C8.44 11.6354 7.50249 12.492 6.41 12.492V10.992ZM5.88 10.5241C5.88 10.7449 6.08249 10.992 6.41 10.992V12.492C5.31752 12.492 4.38 11.6354 4.38 10.5241H5.88ZM6.41 10.0563C6.07859 10.0563 5.88 10.2976 5.88 10.5241H4.38C4.38 9.39966 5.32142 8.55632 6.41 8.55632V10.0563ZM6.94 10.5241C6.94 10.2976 6.74142 10.0563 6.41 10.0563V8.55632C7.49859 8.55632 8.44 9.39966 8.44 10.5241H6.94Z" fill="black"/>
</svg>
