<svg width="32" height="32" viewBox="0 0 32 32" fill="none" xmlns="http://www.w3.org/2000/svg">
<path d="M16 0C7.16327 0 0 7.16367 0 15.9999C0 24.8362 7.16327 31.9999 16 31.9999C24.8366 31.9999 31.9999 24.8366 31.9999 15.9999C31.9999 7.16327 24.8366 0 16 0ZM23.7382 12.9372C23.7454 13.0952 23.749 13.254 23.749 13.4136C23.749 18.2814 20.0434 23.8946 13.2676 23.8946C11.2656 23.8966 9.30526 23.3222 7.62093 22.2399C9.56889 22.4692 11.5287 21.921 13.0749 20.7141C12.3061 20.6997 11.5611 20.4453 10.9441 19.9866C10.327 19.5279 9.86879 18.8877 9.63349 18.1558C10.1857 18.2618 10.7548 18.2403 11.2973 18.0927C10.4636 17.9242 9.71381 17.4725 9.17514 16.8142C8.63648 16.1559 8.3421 15.3315 8.34193 14.4809C8.34193 14.465 8.34193 14.4494 8.34193 14.4343C8.85315 14.7191 9.42522 14.8771 10.0101 14.8951C9.23027 14.3741 8.67824 13.5755 8.46639 12.6618C8.25454 11.7481 8.3988 10.7881 8.86981 9.97703C9.79474 11.1152 10.9488 12.046 12.2569 12.7091C13.565 13.3722 14.998 13.7526 16.4628 13.8258C16.2785 13.0359 16.36 12.2072 16.6945 11.4682C17.029 10.7293 17.598 10.1213 18.3132 9.7386C19.0283 9.35586 19.8498 9.21971 20.6502 9.35126C21.4506 9.48281 22.1852 9.8747 22.7403 10.4662C23.5653 10.3036 24.3565 10.0012 25.0796 9.57204C24.8047 10.4245 24.2296 11.1482 23.4613 11.6085C24.1912 11.5218 24.904 11.3263 25.576 11.0284C25.0817 11.7688 24.4593 12.4152 23.7382 12.9372Z" fill="#B3B3B3"/>
</svg>
