<svg width="32" height="32" viewBox="0 0 32 32" fill="none" xmlns="http://www.w3.org/2000/svg">
<path d="M22.9976 10.7056C22.8535 10.3156 22.624 9.9627 22.3257 9.67299C22.0361 9.37489 21.6834 9.14544 21.2935 9.00147C20.9775 8.87858 20.5018 8.73254 19.6264 8.69264C18.68 8.64915 18.3959 8.63998 15.9991 8.63998C13.6023 8.63998 13.3178 8.64915 12.3714 8.69264C11.496 8.73254 11.0208 8.87858 10.7044 9.00147C10.3144 9.14543 9.96163 9.37504 9.67214 9.67339C9.37379 9.96289 9.14418 10.3156 9.00022 10.7056C8.87732 11.0216 8.73129 11.4972 8.69139 12.3726C8.6479 13.3191 8.63912 13.6032 8.63912 16C8.63912 18.3968 8.6479 18.6812 8.69139 19.6277C8.73129 20.5031 8.87732 20.9783 9.00022 21.2947C9.14418 21.6847 9.37379 22.0374 9.67214 22.3269C9.96163 22.6253 10.3144 22.8549 10.7044 22.9988C11.0208 23.1217 11.496 23.2678 12.3714 23.3077C13.3178 23.3508 13.6015 23.3599 15.9991 23.3599C18.3967 23.3599 18.68 23.3508 19.6264 23.3077C20.5018 23.2678 20.9775 23.1217 21.2935 22.9988C21.6835 22.8549 22.0362 22.6253 22.3257 22.3269C22.624 22.0374 22.8536 21.6847 22.9976 21.2947C23.1205 20.9783 23.2665 20.5031 23.3064 19.6277C23.3499 18.6812 23.3587 18.3972 23.3587 16C23.3587 13.6028 23.3499 13.3191 23.3064 12.3726C23.2665 11.4972 23.1205 11.0216 22.9976 10.7056ZM15.9999 20.61C15.3945 20.6101 14.795 20.4909 14.2356 20.2592C13.6762 20.0276 13.168 19.688 12.7398 19.2599C12.3117 18.8318 11.9721 18.3236 11.7404 17.7642C11.5087 17.2049 11.3894 16.6054 11.3894 16C11.3894 15.3945 11.5087 14.795 11.7404 14.2357C11.9721 13.6763 12.3117 13.1681 12.7398 12.74C13.168 12.3119 13.6762 11.9724 14.2356 11.7407C14.795 11.509 15.3945 11.3898 15.9999 11.3899C17.2224 11.3901 18.3948 11.8759 19.2592 12.7404C20.1236 13.605 20.6092 14.7774 20.6092 16C20.6092 16.6053 20.49 17.2047 20.2584 17.764C20.0268 18.3233 19.6873 18.8315 19.2593 19.2596C18.8313 19.6877 18.3232 20.0273 17.7639 20.259C17.2047 20.4907 16.6053 20.61 15.9999 20.61ZM20.7911 12.2869C20.5054 12.2869 20.2314 12.1733 20.0294 11.9713C19.8273 11.7693 19.7138 11.4953 19.7138 11.2095C19.7138 10.9238 19.8273 10.6498 20.0294 10.4478C20.2314 10.2457 20.5054 10.1322 20.7911 10.1322C21.0768 10.1322 21.3509 10.2457 21.5529 10.4478C21.7549 10.6498 21.8684 10.9238 21.8684 11.2095C21.8684 11.4953 21.7549 11.7693 21.5529 11.9713C21.3509 12.1733 21.0768 12.2869 20.7911 12.2869Z" fill="#B3B3B3"/>
<path d="M15.9991 18.9925C17.6518 18.9925 18.9916 17.6527 18.9916 16C18.9916 14.3472 17.6518 13.0074 15.9991 13.0074C14.3464 13.0074 13.0066 14.3472 13.0066 16C13.0066 17.6527 14.3464 18.9925 15.9991 18.9925Z" fill="#B3B3B3"/>
<path d="M16 0C7.16328 0 0 7.16367 0 15.9999C0 24.8362 7.16328 31.9999 16 31.9999C24.8367 31.9999 31.9999 24.8366 31.9999 15.9999C31.9999 7.16327 24.8355 0 16 0ZM24.9224 19.7015C24.879 20.6591 24.7273 21.3099 24.5051 21.8808C24.2796 22.4798 23.9263 23.0224 23.4697 23.4708C23.0212 23.9275 22.4786 24.2808 21.8797 24.5063C21.3087 24.7281 20.6559 24.8801 19.7003 24.9236C18.7447 24.9671 18.4371 24.9775 15.9992 24.9775C13.5613 24.9775 13.2552 24.9675 12.2976 24.9236C11.34 24.8797 10.6893 24.7281 10.1183 24.5063C9.51931 24.2808 8.9767 23.9275 8.52826 23.4708C8.07164 23.0224 7.7183 22.4798 7.49285 21.8808C7.27101 21.3099 7.11899 20.6571 7.0755 19.7015C7.03201 18.7459 7.02163 18.4382 7.02163 15.9999C7.02163 13.5617 7.03161 13.2564 7.0755 12.2988C7.11939 11.3412 7.27101 10.6904 7.49285 10.1195C7.7183 9.52049 8.07164 8.97788 8.52826 8.52945C8.9767 8.07283 9.51931 7.71948 10.1183 7.49403C10.6893 7.27179 11.342 7.12017 12.2976 7.07668C13.2532 7.03319 13.5609 7.02242 15.9992 7.02242C18.4375 7.02242 18.7427 7.03279 19.7003 7.07668C20.6579 7.12057 21.3087 7.27179 21.8797 7.49403C22.4786 7.71948 23.0212 8.07283 23.4697 8.52945C23.9263 8.97788 24.2796 9.52049 24.5051 10.1195C24.7273 10.6904 24.879 11.3432 24.9224 12.2988C24.9659 13.2544 24.9775 13.5636 24.9775 15.9999C24.9775 18.4363 24.9663 18.7439 24.9224 19.7015Z" fill="#B3B3B3"/>
</svg>
