<svg width="160" height="45" viewBox="0 0 160 45" fill="none" xmlns="http://www.w3.org/2000/svg">
<path d="M25.508 16.3775C22.6268 16.3775 20.2384 18.728 20.2384 21.6471V22.7465C20.2384 23.1635 19.8972 23.5426 19.4423 23.5426H13.9073C13.4903 23.5426 13.1112 23.2014 13.1112 22.7465V16.2259C13.1112 13.8375 11.1778 11.9041 8.78938 11.9041H2.57203C2.15501 11.9041 1.7759 12.2452 1.7759 12.7002V14.5199C1.7759 14.9369 2.1171 15.316 2.57203 15.316H8.82729C9.32013 15.316 9.73715 15.733 9.73715 16.2259V22.7465C9.73715 23.1635 9.39596 23.5426 8.94103 23.5426H7.12131C3.29233 23.5426 0.183655 26.6513 0.183655 30.4803V32.3C0.183655 35.8636 3.10278 38.7827 6.66638 38.7827C10.23 38.7827 13.1491 35.8636 13.1491 32.3V27.7128C13.1491 27.2958 13.4903 26.9167 13.9452 26.9167H19.4802C19.8972 26.9167 20.2763 27.2579 20.2763 27.7128V37.9866C20.2763 38.4036 20.6175 38.7827 21.0725 38.7827H22.8922C23.3092 38.7827 23.6883 38.4415 23.6883 37.9866V27.7128C23.6883 27.2958 24.0295 26.9167 24.4844 26.9167H25.5459C28.465 26.9167 30.8155 24.5662 30.8155 21.6471C30.7776 18.7659 28.4271 16.3775 25.508 16.3775ZM9.73715 32.3C9.73715 34.006 8.37237 35.3708 6.66638 35.3708C4.9604 35.3708 3.59562 34.006 3.59562 32.3V30.4803C3.59562 28.5469 5.18787 26.9546 7.12131 26.9546H8.94103C9.35804 26.9546 9.73715 27.2958 9.73715 27.7507V32.3ZM25.508 23.5426H24.4465C24.0295 23.5426 23.6504 23.2014 23.6504 22.7465V21.6471C23.6504 20.6235 24.4844 19.7895 25.508 19.7895C26.5316 19.7895 27.3656 20.6235 27.3656 21.6471C27.3656 22.6707 26.5316 23.5426 25.508 23.5426Z" fill="#FF8C00"/>
<path d="M57.3909 32.2242C57.3909 33.9681 55.9882 35.3708 54.2443 35.3708C52.5004 35.3708 51.0977 33.9681 51.0977 32.2242V30.4424C51.0977 26.6134 47.9891 23.5047 44.1601 23.5047H42.3783C41.9613 23.5047 41.5821 23.1635 41.5821 22.7086V12.7002C41.5821 12.2832 41.2409 11.9041 40.786 11.9041H38.9663C38.5493 11.9041 38.1702 12.2452 38.1702 12.7002V22.7086C38.1702 23.1256 37.829 23.5047 37.412 23.5426C33.9242 23.8838 31.1946 26.8409 31.1946 30.4424V33.5511C31.1946 36.4323 33.5451 38.7448 36.3884 38.7448C39.2317 38.7448 41.5821 36.4323 41.5821 33.5511V27.7128C41.5821 27.2958 41.9233 26.9167 42.3783 26.9167H44.1601C46.0935 26.9167 47.6858 28.5089 47.6858 30.4424V32.2242C47.6858 35.8257 50.6049 38.7827 54.2443 38.7827C57.8458 38.7827 60.8029 35.8636 60.8029 32.2621V24.3388C60.8029 23.9217 60.4617 23.5426 60.0067 23.5426H58.187C57.77 23.5426 57.3909 23.8838 57.3909 24.3388V32.2242ZM38.2081 33.5511C38.2081 34.5367 37.412 35.3329 36.4263 35.3329C35.4406 35.3329 34.6445 34.5367 34.6445 33.5511V30.4424C34.6445 28.7743 35.8197 27.3337 37.412 26.9925C37.829 26.9167 38.246 27.22 38.246 27.637V33.5511H38.2081Z" fill="#FF8C00"/>
<path d="M80.6302 14.861C80.6302 12.1314 78.4693 9.89465 75.7776 9.89465H69.4465C66.7928 9.89465 64.5939 12.0556 64.5939 14.7472V15.6571C64.5939 16.0741 64.2527 16.4532 63.7978 16.4532H61.5232C61.1062 16.4532 60.7271 16.7944 60.7271 17.2493V19.069C60.7271 19.4861 61.0682 19.8652 61.5232 19.8652H63.7978C64.2148 19.8652 64.5939 20.2064 64.5939 20.6613V32.1103C64.5939 32.5273 64.9351 32.9065 65.3901 32.9065H67.2098C67.6268 32.9065 68.0059 32.5653 68.0059 32.1103V20.6613C68.0059 20.2443 68.3471 19.8652 68.802 19.8652H75.7776C78.4693 19.8273 80.6302 17.5905 80.6302 14.861ZM68.0059 14.7472C68.0059 13.9511 68.6504 13.3066 69.4465 13.3066H75.7776C76.5737 13.3066 77.2182 13.989 77.2182 14.861C77.2182 15.7329 76.5737 16.4153 75.7776 16.4153H68.802C68.385 16.4153 68.0059 16.0741 68.0059 15.6192V14.7472Z" fill="#FF8C00"/>
<path d="M87.909 16.4154C85.5206 16.4154 83.5872 18.3488 83.5872 20.7372V22.7464C83.5872 23.1635 83.246 23.5426 82.7911 23.5426H78.6209C74.7919 23.5426 71.6832 26.6512 71.6832 30.4802V31.845C71.6832 35.674 74.7919 38.7827 78.6209 38.7827H80.0236C83.8526 38.7827 86.9612 35.674 86.9612 31.845V27.7127C86.9612 27.2957 87.3024 26.9166 87.7574 26.9166H90.9419C91.3589 26.9166 91.738 26.5754 91.738 26.1205V24.3008C91.738 23.8838 91.3968 23.5047 90.9419 23.5047H87.7574C87.3403 23.5047 86.9612 23.1635 86.9612 22.7085V20.6993C86.9612 20.2064 87.3783 19.7894 87.8711 19.7894H90.9798C91.3968 19.7894 91.7759 19.4482 91.7759 18.9933V17.1736C91.7759 16.7565 91.4347 16.3774 90.9798 16.3774H87.909V16.4154ZM83.5872 31.845C83.5872 33.7785 81.9949 35.3707 80.0615 35.3707H78.6588C76.7253 35.3707 75.1331 33.7785 75.1331 31.845V30.4802C75.1331 28.5468 76.7253 26.9545 78.6588 26.9545H82.829C83.246 26.9545 83.6251 27.2957 83.6251 27.7507V31.845H83.5872Z" fill="#FF8C00"/>
<path d="M99.8509 21.1921H106.902C107.319 21.1921 107.698 20.8509 107.698 20.396V18.5762C107.698 18.1592 107.357 17.7801 106.902 17.7801H99.8509C99.3581 17.7801 98.9411 17.3631 98.9411 16.8703V16.112C98.9411 15.695 99.2823 15.3159 99.7372 15.3159H106.902C107.319 15.3159 107.698 14.9747 107.698 14.5198V12.7001C107.698 12.2831 107.357 11.904 106.902 11.904H99.7372C99.3202 11.904 98.9411 11.5628 98.9411 11.1078V10.2359C98.9411 9.74305 99.3581 9.32603 99.8509 9.32603H109.367C109.784 9.32603 110.163 9.66723 110.163 10.1222V20.358C110.163 20.7751 110.504 21.1542 110.959 21.1542H112.778C113.196 21.1542 113.575 20.813 113.575 20.358V10.1601C113.575 9.74305 113.916 9.36394 114.371 9.36394H123.848C124.341 9.36394 124.758 9.78096 124.758 10.2738V11.1457C124.758 11.5628 124.417 11.9419 123.962 11.9419H116.835C116.418 11.9419 116.039 12.2831 116.039 12.738V14.5577C116.039 14.9747 116.38 15.3538 116.835 15.3538H123.962C124.379 15.3538 124.758 15.695 124.758 16.15V16.9082C124.758 17.401 124.341 17.818 123.848 17.818H116.873C116.456 17.818 116.077 18.1592 116.077 18.6142V20.4339C116.077 20.8509 116.418 21.23 116.873 21.23H123.848C126.237 21.23 128.17 19.2965 128.17 16.9082V10.3117C128.17 7.92334 126.237 5.98989 123.848 5.98989H114.371C113.954 5.98989 113.575 5.64869 113.575 5.19377V4.20809C113.575 3.79107 113.916 3.41196 114.371 3.41196H127.374C127.791 3.41196 128.17 3.07077 128.17 2.61584V0.796124C128.17 0.379106 127.829 0 127.374 0H96.3252C95.9082 0 95.5291 0.341196 95.5291 0.796124V2.61584C95.5291 3.03286 95.8703 3.41196 96.3252 3.41196H109.367C109.784 3.41196 110.163 3.75316 110.163 4.20809V5.19377C110.163 5.61078 109.821 5.98989 109.367 5.98989H99.8509C97.4626 5.98989 95.5291 7.92334 95.5291 10.3117V16.9082C95.567 19.2586 97.5005 21.1921 99.8509 21.1921Z" fill="#FF8C00"/>
<path d="M113.613 40.6782V39.5409C113.613 39.1239 113.954 38.7447 114.409 38.7447H123.811C126.199 38.7447 128.132 36.8113 128.132 34.4229V27.8265C128.132 25.4381 126.199 23.5046 123.811 23.5046H99.8509C97.4626 23.5046 95.5291 25.4381 95.5291 27.8265V34.4229C95.5291 36.8113 97.4626 38.7447 99.8509 38.7447H109.442C109.859 38.7447 110.238 39.0859 110.238 39.5409V40.6782C110.238 43.0666 112.172 45 114.56 45H127.374C127.791 45 128.17 44.6588 128.17 44.2039V42.3842C128.17 41.9672 127.829 41.588 127.374 41.588H114.522C114.03 41.588 113.613 41.171 113.613 40.6782ZM124.72 34.4608C124.72 34.9537 124.303 35.3707 123.811 35.3707H114.409C113.992 35.3707 113.613 35.0295 113.613 34.5746V33.6268C113.613 33.2098 113.954 32.8307 114.409 32.8307H123.962C124.379 32.8307 124.758 33.1719 124.758 33.6268V34.4608H124.72ZM124.72 27.8265V28.6605C124.72 29.0775 124.379 29.4566 123.924 29.4566H114.371C113.954 29.4566 113.575 29.1154 113.575 28.6605V27.7127C113.575 27.2957 113.916 26.9166 114.371 26.9166H123.773C124.341 26.9166 124.72 27.3336 124.72 27.8265ZM98.9411 27.8265C98.9411 27.3336 99.3581 26.9166 99.8509 26.9166H109.442C109.859 26.9166 110.238 27.2578 110.238 27.7127V28.6605C110.238 29.0775 109.897 29.4566 109.442 29.4566H99.7372C99.3202 29.4566 98.9411 29.1154 98.9411 28.6605V27.8265ZM99.8509 35.3707C99.3581 35.3707 98.9411 34.9537 98.9411 34.4608V33.6268C98.9411 33.2098 99.2823 32.8307 99.7372 32.8307H109.442C109.859 32.8307 110.238 33.1719 110.238 33.6268V34.5746C110.238 34.9916 109.897 35.3707 109.442 35.3707H99.8509Z" fill="#FF8C00"/>
<path d="M155.087 11.9041H143.448C143.031 11.9041 142.652 11.5629 142.652 11.1079V6.78611C142.652 6.3691 142.311 5.98999 141.856 5.98999H140.036C139.619 5.98999 139.24 6.33119 139.24 6.78611V11.1458C139.24 11.5629 138.899 11.942 138.444 11.942H132.644C132.227 11.942 131.848 12.2832 131.848 12.7381V14.5578C131.848 14.9748 132.189 15.3539 132.644 15.3539H138.444C138.861 15.3539 139.24 15.6951 139.24 16.1501V34.4988C139.24 34.9917 138.823 35.4087 138.33 35.4087H132.682C132.265 35.4087 131.885 35.7499 131.885 36.2048V38.0245C131.885 38.4416 132.227 38.8207 132.682 38.8207H138.33C140.719 38.8207 142.652 36.8872 142.652 34.4988V16.1501C142.652 15.733 142.993 15.3539 143.448 15.3539H155.087C155.58 15.3539 155.997 15.771 155.997 16.2638V34.4988C155.997 34.9917 155.58 35.4087 155.087 35.4087H149.779C149.362 35.4087 148.983 35.7499 148.983 36.2048V38.0245C148.983 38.4416 149.324 38.8207 149.779 38.8207H155.087C157.475 38.8207 159.409 36.8872 159.409 34.4988V16.2259C159.371 13.8375 157.437 11.9041 155.087 11.9041Z" fill="#FF8C00"/>
</svg>
