<svg width="212" height="60" viewBox="0 0 212 60" fill="none" xmlns="http://www.w3.org/2000/svg">
<path d="M33.6532 21.7638C29.8244 21.7638 26.6505 24.8873 26.6505 28.7665V30.2275C26.6505 30.7816 26.1971 31.2854 25.5926 31.2854H18.2372C17.6831 31.2854 17.1793 30.832 17.1793 30.2275V21.5623C17.1793 18.3884 14.6099 15.819 11.4361 15.819H3.17388C2.61971 15.819 2.11592 16.2724 2.11592 16.877V19.2952C2.11592 19.8494 2.56933 20.3532 3.17388 20.3532H11.4864C12.1414 20.3532 12.6955 20.9073 12.6955 21.5623V30.2275C12.6955 30.7816 12.2421 31.2854 11.6376 31.2854H9.21937C4.13108 31.2854 0 35.4165 0 40.5048V42.923C0 47.6586 3.87919 51.5378 8.61483 51.5378C13.3505 51.5378 17.2297 47.6586 17.2297 42.923V36.8271C17.2297 36.273 17.6831 35.7692 18.2876 35.7692H25.643C26.1971 35.7692 26.7009 36.2226 26.7009 36.8271V50.4799C26.7009 51.034 27.1543 51.5378 27.7589 51.5378H30.1771C30.7313 51.5378 31.235 51.0844 31.235 50.4799V36.8271C31.235 36.273 31.6885 35.7692 32.293 35.7692H33.7036C37.5828 35.7692 40.7063 32.6457 40.7063 28.7665C40.6559 24.9377 37.5324 21.7638 33.6532 21.7638ZM12.6955 42.923C12.6955 45.1901 10.8819 47.0037 8.61483 47.0037C6.34777 47.0037 4.53412 45.1901 4.53412 42.923V40.5048C4.53412 37.9355 6.65004 35.8195 9.21937 35.8195H11.6376C12.1917 35.8195 12.6955 36.2729 12.6955 36.8775V42.923ZM33.6532 31.2854H32.2426C31.6885 31.2854 31.1847 30.832 31.1847 30.2275V28.7665C31.1847 27.4062 32.293 26.2979 33.6532 26.2979C35.0135 26.2979 36.1218 27.4062 36.1218 28.7665C36.1218 30.1267 35.0135 31.2854 33.6532 31.2854Z" fill="white"/>
<path d="M76.0221 42.8222C76.0221 45.1397 74.1581 47.0037 71.8406 47.0037C69.5232 47.0037 67.6591 45.1397 67.6591 42.8222V40.4544C67.6591 35.3661 63.5281 31.235 58.4398 31.235H56.072C55.5178 31.235 55.014 30.7816 55.014 30.1771V16.877C55.014 16.3228 54.5606 15.819 53.956 15.819H51.5378C50.9837 15.819 50.4799 16.2724 50.4799 16.877V30.1771C50.4799 30.7312 50.0265 31.235 49.4723 31.2854C44.8374 31.7388 41.2101 35.6684 41.2101 40.4544V44.5855C41.2101 48.4143 44.3336 51.4874 48.1121 51.4874C51.8905 51.4874 55.014 48.4143 55.014 44.5855V36.8271C55.014 36.273 55.4674 35.7692 56.072 35.7692H58.4398C61.0091 35.7692 63.125 37.8851 63.125 40.4544V42.8222C63.125 47.6083 67.0042 51.5378 71.8406 51.5378C76.6266 51.5378 80.5562 47.6586 80.5562 42.8726V32.3434C80.5562 31.7892 80.1028 31.2854 79.4982 31.2854H77.08C76.5259 31.2854 76.0221 31.7388 76.0221 32.3434V42.8222ZM50.5302 44.5855C50.5302 45.8954 49.4723 46.9533 48.1624 46.9533C46.8526 46.9533 45.7946 45.8954 45.7946 44.5855V40.4544C45.7946 38.2377 47.3564 36.3233 49.4723 35.8699C50.0265 35.7692 50.5806 36.1722 50.5806 36.7264V44.5855H50.5302Z" fill="white"/>
<path d="M106.904 19.7486C106.904 16.1213 104.033 13.149 100.456 13.149H92.0426C88.5161 13.149 85.5941 16.0206 85.5941 19.5975V20.8066C85.5941 21.3607 85.1407 21.8645 84.5361 21.8645H81.5134C80.9592 21.8645 80.4554 22.318 80.4554 22.9225V25.3407C80.4554 25.8949 80.9089 26.3987 81.5134 26.3987H84.5361C85.0903 26.3987 85.5941 26.8521 85.5941 27.4566V42.6711C85.5941 43.2253 86.0475 43.7291 86.6521 43.7291H89.0703C89.6244 43.7291 90.1282 43.2757 90.1282 42.6711V27.4566C90.1282 26.9024 90.5816 26.3987 91.1862 26.3987H100.456C104.033 26.3483 106.904 23.3759 106.904 19.7486ZM90.1282 19.5975C90.1282 18.5395 90.9847 17.6831 92.0426 17.6831H100.456C101.514 17.6831 102.37 18.5899 102.37 19.7486C102.37 20.9073 101.514 21.8142 100.456 21.8142H91.1862C90.632 21.8142 90.1282 21.3608 90.1282 20.7562V19.5975Z" fill="white"/>
<path d="M116.577 21.8141C113.403 21.8141 110.834 24.3835 110.834 27.5574V30.2275C110.834 30.7816 110.381 31.2854 109.776 31.2854H104.234C99.1461 31.2854 95.015 35.4165 95.015 40.5048V42.3184C95.015 47.4067 99.1461 51.5378 104.234 51.5378H106.098C111.187 51.5378 115.318 47.4067 115.318 42.3184V36.8271C115.318 36.2729 115.771 35.7692 116.376 35.7692H120.608C121.162 35.7692 121.666 35.3157 121.666 34.7112V32.293C121.666 31.7388 121.212 31.235 120.608 31.235H116.376C115.822 31.235 115.318 30.7816 115.318 30.1771V27.507C115.318 26.8521 115.872 26.2979 116.527 26.2979H120.658C121.212 26.2979 121.716 25.8445 121.716 25.2399V22.8217C121.716 22.2676 121.263 21.7638 120.658 21.7638H116.577V21.8141ZM110.834 42.3184C110.834 44.8878 108.718 47.0037 106.149 47.0037H104.285C101.715 47.0037 99.5995 44.8878 99.5995 42.3184V40.5048C99.5995 37.9355 101.715 35.8195 104.285 35.8195H109.826C110.381 35.8195 110.884 36.2729 110.884 36.8775V42.3184H110.834Z" fill="white"/>
<path d="M132.447 28.1619H141.817C142.371 28.1619 142.875 27.7085 142.875 27.104V24.6858C142.875 24.1316 142.422 23.6278 141.817 23.6278H132.447C131.792 23.6278 131.238 23.0736 131.238 22.4187V21.4111C131.238 20.8569 131.691 20.3532 132.296 20.3532H141.817C142.371 20.3532 142.875 19.8997 142.875 19.2952V16.877C142.875 16.3228 142.422 15.819 141.817 15.819H132.296C131.741 15.819 131.238 15.3656 131.238 14.7611V13.6024C131.238 12.9474 131.792 12.3933 132.447 12.3933H145.092C145.646 12.3933 146.15 12.8467 146.15 13.4512V27.0536C146.15 27.6078 146.603 28.1115 147.208 28.1115H149.626C150.18 28.1115 150.684 27.6581 150.684 27.0536V13.5016C150.684 12.9474 151.137 12.4436 151.742 12.4436H164.337C164.992 12.4436 165.546 12.9978 165.546 13.6527V14.8115C165.546 15.3656 165.092 15.8694 164.488 15.8694H155.017C154.462 15.8694 153.959 16.3228 153.959 16.9274V19.3456C153.959 19.8997 154.412 20.4035 155.017 20.4035H164.488C165.042 20.4035 165.546 20.857 165.546 21.4615V22.4691C165.546 23.124 164.992 23.6782 164.337 23.6782H155.067C154.513 23.6782 154.009 24.1316 154.009 24.7361V27.1543C154.009 27.7085 154.462 28.2123 155.067 28.2123H164.337C167.511 28.2123 170.08 25.643 170.08 22.4691V13.7031C170.08 10.5292 167.511 7.9599 164.337 7.9599H151.742C151.188 7.9599 150.684 7.50649 150.684 6.90194V5.59208C150.684 5.03791 151.137 4.53412 151.742 4.53412H169.022C169.576 4.53412 170.08 4.08071 170.08 3.47616V1.05796C170.08 0.50379 169.626 0 169.022 0H127.761C127.207 0 126.703 0.453411 126.703 1.05796V3.47616C126.703 4.03033 127.157 4.53412 127.761 4.53412H145.092C145.646 4.53412 146.15 4.98753 146.15 5.59208V6.90194C146.15 7.45611 145.696 7.9599 145.092 7.9599H132.447C129.273 7.9599 126.703 10.5292 126.703 13.7031V22.4691C126.754 25.5926 129.323 28.1619 132.447 28.1619Z" fill="white"/>
<path d="M150.734 54.0568V52.5454C150.734 51.9912 151.188 51.4874 151.792 51.4874H164.286C167.46 51.4874 170.03 48.9181 170.03 45.7442V36.9783C170.03 33.8044 167.46 31.235 164.286 31.235H132.447C129.273 31.235 126.703 33.8044 126.703 36.9783V45.7442C126.703 48.9181 129.273 51.4874 132.447 51.4874H145.193C145.747 51.4874 146.251 51.9409 146.251 52.5454V54.0568C146.251 57.2307 148.82 59.8 151.994 59.8H169.022C169.576 59.8 170.08 59.3466 170.08 58.742V56.3238C170.08 55.7697 169.626 55.2659 169.022 55.2659H151.943C151.289 55.2659 150.734 54.7117 150.734 54.0568ZM165.495 45.7946C165.495 46.4495 164.941 47.0037 164.286 47.0037H151.792C151.238 47.0037 150.734 46.5503 150.734 45.9457V44.6863C150.734 44.1321 151.188 43.6283 151.792 43.6283H164.488C165.042 43.6283 165.546 44.0817 165.546 44.6863V45.7946H165.495ZM165.495 36.9783V38.0866C165.495 38.6408 165.042 39.1446 164.437 39.1446H151.742C151.188 39.1446 150.684 38.6912 150.684 38.0866V36.8271C150.684 36.273 151.137 35.7692 151.742 35.7692H164.236C164.992 35.7692 165.495 36.3233 165.495 36.9783ZM131.238 36.9783C131.238 36.3233 131.792 35.7692 132.447 35.7692H145.193C145.747 35.7692 146.251 36.2226 146.251 36.8271V38.0866C146.251 38.6408 145.797 39.1446 145.193 39.1446H132.296C131.741 39.1446 131.238 38.6912 131.238 38.0866V36.9783ZM132.447 47.0037C131.792 47.0037 131.238 46.4495 131.238 45.7946V44.6863C131.238 44.1321 131.691 43.6283 132.296 43.6283H145.193C145.747 43.6283 146.251 44.0817 146.251 44.6863V45.9457C146.251 46.4999 145.797 47.0037 145.193 47.0037H132.447Z" fill="white"/>
<path d="M205.849 15.819H190.383C189.828 15.819 189.325 15.3656 189.325 14.7611V9.01786C189.325 8.46369 188.871 7.9599 188.267 7.9599H185.849C185.294 7.9599 184.791 8.41331 184.791 9.01786V14.8115C184.791 15.3656 184.337 15.8694 183.733 15.8694H176.025C175.47 15.8694 174.967 16.3228 174.967 16.9274V19.3456C174.967 19.8997 175.42 20.4035 176.025 20.4035H183.733C184.287 20.4035 184.791 20.857 184.791 21.4615V45.845C184.791 46.4999 184.236 47.0541 183.581 47.0541H176.075C175.521 47.0541 175.017 47.5075 175.017 48.1121V50.5303C175.017 51.0844 175.47 51.5882 176.075 51.5882H183.581C186.755 51.5882 189.325 49.0189 189.325 45.845V21.4615C189.325 20.9073 189.778 20.4035 190.383 20.4035H205.849C206.504 20.4035 207.058 20.9577 207.058 21.6126V45.845C207.058 46.4999 206.504 47.0541 205.849 47.0541H198.796C198.242 47.0541 197.738 47.5075 197.738 48.1121V50.5303C197.738 51.0844 198.191 51.5882 198.796 51.5882H205.849C209.023 51.5882 211.592 49.0189 211.592 45.845V21.5623C211.542 18.3884 208.973 15.819 205.849 15.819Z" fill="white"/>
</svg>
