<svg width="8" height="6" viewBox="0 0 8 6" fill="none" xmlns="http://www.w3.org/2000/svg">
<path d="M5.81156 5.99899C5.70131 5.99899 5.58289 5.98203 5.46447 5.94388C5.42772 5.9354 5.39097 5.92268 5.34197 5.90572C5.12555 5.83789 4.6233 5.67254 3.87604 5.66406C3.1247 5.67254 2.62244 5.83789 2.41011 5.90572C2.3611 5.92268 2.32435 5.9354 2.2876 5.94388C1.67101 6.1389 1.13201 5.81669 0.907423 5.11716C0.90334 5.1002 0.111165 2.51406 0.0458308 2.29785C-0.0725871 1.89509 0.0335807 1.29307 0.421501 0.975101C0.703254 0.733445 1.84252 0.135666 3.38195 0.0211978V0H3.85154C3.8597 0 3.86787 0 3.87195 0H3.87604C3.8842 0 3.89237 0 3.89645 0H4.34971V0.0169583C5.90139 0.131427 7.04065 0.729206 7.32649 0.975101C7.71441 1.29307 7.82058 1.89509 7.70216 2.29785C7.64091 2.51406 6.84874 5.1002 6.84057 5.11716C6.66498 5.68102 6.27706 5.99899 5.81156 5.99899ZM5.68906 4.99845L5.70947 5.00269L5.73397 5.01117C5.81156 5.03661 5.87281 5.05781 5.95039 4.81191C5.97489 4.7356 6.75482 2.18762 6.80382 2.01803L6.8079 2.00956C6.82424 1.94172 6.79565 1.77638 6.74665 1.74246L6.73032 1.72974C6.58332 1.61104 5.46447 0.98782 3.89237 0.975101H3.87195H3.85154C2.27944 0.98782 1.16468 1.61104 1.01767 1.7255L1.00134 1.73822C0.956424 1.77638 0.923757 1.94172 0.94009 2.00956L0.944174 2.01803C0.993174 2.18762 1.7731 4.73136 1.7976 4.81191C1.87518 5.05781 1.93643 5.03661 2.01402 5.01117L2.03852 5.00269L2.05894 4.99845C2.07527 4.99421 2.09977 4.98573 2.12835 4.97725C2.38152 4.89246 2.98178 4.70168 3.87195 4.68896H3.87604H3.88012C4.7703 4.70168 5.36647 4.89246 5.62372 4.97725C5.64822 4.98573 5.67272 4.99421 5.68906 4.99845Z" fill="#6FCF97"/>
<path d="M3.77395 4.04464C3.62286 4.04464 3.47586 3.9556 3.40645 3.80298L2.60202 2.03508C2.50402 1.8231 2.59385 1.56873 2.79802 1.47122C3.00219 1.36947 3.24719 1.46274 3.34111 1.67472L4.14554 3.44262C4.24354 3.6546 4.1537 3.90897 3.94953 4.00648C3.89237 4.03192 3.83112 4.04464 3.77395 4.04464Z" fill="#6FCF97"/>
<path d="M3.86786 4.49404C4.26477 4.49404 4.58653 4.15997 4.58653 3.74787C4.58653 3.33578 4.26477 3.00171 3.86786 3.00171C3.47095 3.00171 3.14919 3.33578 3.14919 3.74787C3.14919 4.15997 3.47095 4.49404 3.86786 4.49404Z" fill="#6FCF97"/>
<path d="M6.01574 2.52672C5.97898 2.52672 5.94223 2.51824 5.90548 2.49704C5.4359 2.22571 4.52122 2.06884 4.12105 2.0858C3.99855 2.09004 3.89238 1.99253 3.8883 1.8611C3.88421 1.72968 3.97813 1.62369 4.10472 1.61945C4.57839 1.59825 5.57473 1.76783 6.13007 2.09004C6.23624 2.15363 6.27707 2.29354 6.21582 2.40801C6.1709 2.48008 6.09332 2.52672 6.01574 2.52672Z" fill="#6FCF97"/>
</svg>
